<svg xmlns="http://www.w3.org/2000/svg" width="754" height="376" viewBox="0 0 754 376"><defs><style>.a,.b{fill:none;}.b{stroke:#fff;stroke-width:6px;}.c,.e{fill:#fff;}.d,.e{stroke:none;}</style></defs><g transform="translate(-57 -160.295)"><g class="a" transform="translate(-83.156 -159)"><path class="d" d="M444.928,352.424l.044.008,16.512,3.3,1.974,24.926V384.5h.3l2.4,30.315a1.839,1.839,0,0,0,1.044,1.755,2.1,2.1,0,0,0,.722.253,3.327,3.327,0,0,0,.628.076h79.216s2.394.018,2.394-2.084c0-2.138-2.394-2.257-2.394-2.257H470.748l-.61-7.709h78.683l8.174-42.344L465.9,351.318l-.1-1.246,0-.038a2.388,2.388,0,0,0-2.628-2.026,2.123,2.123,0,0,0-2.109,2.323v.038l.067.849-15.141-3.026-.044-.009s-2.366-.35-2.865,1.738C442.585,351.975,444.928,352.424,444.928,352.424ZM481.708,400.5l-11.913.006L468.527,384.5h13.658Zm57.586-35.782,12.174,1.5-2.7,13.944H537.949ZM537.571,384.5h10.35l-3.1,15.969-8.644,0Zm-20.727-22.54,17.733,2.179-1.4,16.02h-17.6Zm-1.564,22.54H532.8l-1.392,15.975-17.241.009ZM487.721,358.38l24.4,3-1.3,18.779H487.07Zm-.78,26.119h23.577l-1.109,15.987-22.946.012Zm-3.957-26.7-.668,22.361H468.184l-1.933-24.417Zm49.887,65.339c-4.789.017-8.663,3.569-8.658,7.945s3.9,7.919,8.691,7.911,8.663-3.561,8.654-7.936S537.664,423.137,532.87,423.137Zm-57.839-4.723c-6.222,0-11.261,4.6-11.261,10.285s5.039,10.293,11.261,10.293,11.262-4.612,11.262-10.293S481.254,418.414,475.031,418.414Z"/><path class="e" d="M 475.0310668945313 423.41455078125 C 473.2727661132813 423.41455078125 471.6420288085938 424.0196838378906 470.4390258789063 425.118408203125 C 469.3626098632813 426.1016845703125 468.769775390625 427.3734130859375 468.769775390625 428.6992492675781 C 468.769775390625 430.0266723632813 469.3633422851563 431.300537109375 470.4412231445313 432.2862548828125 C 471.6443481445313 433.3864135742188 473.2744750976563 433.9924011230469 475.0310668945313 433.9924011230469 C 476.7879028320313 433.9924011230469 478.418212890625 433.3864135742188 479.6214599609375 432.2861022949219 C 480.6993408203125 431.300537109375 481.2929077148438 430.0266723632813 481.2929077148438 428.6992492675781 C 481.2929077148438 427.3734130859375 480.7000732421875 426.1016845703125 479.6234741210938 425.1185302734375 C 478.4204711914063 424.0196838378906 476.7894897460938 423.41455078125 475.0310668945313 423.41455078125 M 532.8826293945313 428.1372985839844 C 531.8168334960938 428.1421813964844 530.8370361328125 428.5051879882813 530.1236572265625 429.1596984863281 C 529.7084350585938 429.5404357910156 529.2141723632813 430.1802062988281 529.2119140625 431.0675048828125 C 529.21533203125 431.9609375 529.7130126953125 432.6019287109375 530.1300048828125 432.9825439453125 C 530.8436279296875 433.6336975097656 531.8223266601563 433.9924011230469 532.8857421875 433.9924011230469 L 532.893798828125 433.9924011230469 C 533.9586181640625 433.9905395507813 534.9373779296875 433.6296997070313 535.649658203125 432.9766845703125 C 536.064453125 432.5962524414063 536.55859375 431.9559631347656 536.5567626953125 431.0668334960938 C 536.554931640625 430.1735534667969 536.0563354492188 429.5316772460938 535.6384887695313 429.1506958007813 C 534.9246826171875 428.4996337890625 533.9462890625 428.1400451660156 532.8826293945313 428.1372985839844 M 463.3878784179688 348.0006713867188 C 465.5233764648438 348.0006713867188 465.7974853515625 350.0339660644531 465.7974853515625 350.0339660644531 L 465.8020629882813 350.072265625 L 465.9007568359375 351.3178405761719 L 556.9943237304688 362.505126953125 L 548.8206176757813 404.8485412597656 L 470.1380615234375 404.8485412597656 L 470.7484741210938 412.5579833984375 L 547.7744750976563 412.5579833984375 C 547.7744750976563 412.5579833984375 550.1687622070313 412.6775512695313 550.1687622070313 414.8153991699219 C 550.1687622070313 416.8818359375 547.8541870117188 416.8991088867188 547.7764892578125 416.8991088867188 C 547.775146484375 416.8991088867188 547.7744750976563 416.8991088867188 547.7744750976563 416.8991088867188 L 468.6000366210938 416.8991088867188 L 468.5581665039063 416.8979797363281 C 468.5581665039063 416.8979797363281 468.28759765625 416.8981018066406 467.9303588867188 416.8218383789063 C 467.6473388671875 416.7745361328125 467.4078979492188 416.6865539550781 467.2080688476563 416.5692443847656 C 466.6647338867188 416.2901306152344 466.1638793945313 415.7751159667969 466.1638793945313 414.8142700195313 L 463.7630615234375 384.4998168945313 L 463.4586181640625 384.4998168945313 L 463.4586181640625 380.6568298339844 L 461.484619140625 355.7309875488281 L 444.9725952148438 352.4324035644531 L 444.9283447265625 352.4239807128906 C 444.9283447265625 352.4239807128906 442.585205078125 351.9747009277344 443.076904296875 349.9206848144531 C 443.4506225585938 348.3567504882813 444.871826171875 348.1604614257813 445.5618286132813 348.1604919433594 C 445.7931518554688 348.1604919433594 445.9423217773438 348.1825561523438 445.9423217773438 348.1825561523438 L 445.986328125 348.1909790039063 L 461.127197265625 351.2174072265625 L 461.0599365234375 350.3688354492188 L 461.0599365234375 350.3306884765625 C 461.0599365234375 350.3306884765625 460.87646484375 348.1495361328125 463.1688842773438 348.0075378417969 C 463.2440795898438 348.0028991699219 463.31689453125 348.0006713867188 463.3878784179688 348.0006713867188 Z M 466.2509155273438 355.74169921875 L 468.18359375 380.15869140625 L 482.3153076171875 380.15869140625 L 482.9832153320313 357.7981262207031 L 466.2509155273438 355.74169921875 Z M 510.8193359375 380.15869140625 L 512.1226196289063 361.3792724609375 L 487.7207641601563 358.3802490234375 L 487.0703125 380.15869140625 L 510.8193359375 380.15869140625 Z M 533.1813354492188 380.15869140625 L 534.5770263671875 364.138671875 L 516.84375 361.9594116210938 L 515.5806274414063 380.15869140625 L 533.1813354492188 380.15869140625 Z M 548.762939453125 380.15869140625 L 551.4677734375 366.2145385742188 L 539.294189453125 364.7184143066406 L 537.9490356445313 380.15869140625 L 548.762939453125 380.15869140625 Z M 468.52734375 384.4998168945313 L 469.7944946289063 400.5068359375 L 481.707763671875 400.5007019042969 L 482.1856079101563 384.4998168945313 L 468.52734375 384.4998168945313 Z M 486.4627685546875 400.4982604980469 L 509.4086303710938 400.4865417480469 L 510.5180358886719 384.4998168945313 L 486.9406127929688 384.4998168945313 L 486.4627685546875 400.4982604980469 Z M 514.1700439453125 400.4839782714844 L 531.4114990234375 400.4751281738281 L 532.80322265625 384.4998168945313 L 515.2794799804688 384.4998168945313 L 514.1700439453125 400.4839782714844 Z M 536.1793212890625 400.4726867675781 L 544.8233642578125 400.46826171875 L 547.9208984375 384.4998168945313 L 537.571044921875 384.4998168945313 L 536.1793212890625 400.4726867675781 Z M 475.0310668945313 418.41455078125 C 481.2537841796875 418.41455078125 486.2929077148438 423.0185546875 486.2929077148438 428.6992492675781 C 486.2929077148438 434.3799743652344 481.2537841796875 438.9924011230469 475.0310668945313 438.9924011230469 C 468.8087768554688 438.9924011230469 463.769775390625 434.3799743652344 463.769775390625 428.6992492675781 C 463.769775390625 423.0185546875 468.8087768554688 418.41455078125 475.0310668945313 418.41455078125 Z M 532.870361328125 423.1372680664063 C 537.6636352539063 423.1372680664063 541.5474853515625 426.6812438964844 541.5567626953125 431.0562438964844 C 541.56591796875 435.431396484375 537.6913452148438 438.9838256835938 532.9027709960938 438.9924011230469 C 532.8969116210938 438.9924011230469 532.8915405273438 438.9924011230469 532.8857421875 438.9924011230469 C 528.1004638671875 438.9924011230469 524.2258911132813 435.4514770507813 524.2119140625 431.0818176269531 C 524.20703125 426.7066955566406 528.081787109375 423.1541137695313 532.870361328125 423.1372680664063 Z"/></g><g class="b" transform="translate(57 160.295)"><rect class="d" width="754" height="376" rx="10"/><rect class="a" x="3" y="3" width="748" height="370" rx="7"/></g><path class="c" d="M34.561-43.17H7.217v24.219H32.51v7.373H7.217V19.427h-8.2v-70.02H34.561Zm63.621,62.6H89.1L81.678-.2H51.991L45.008,19.427H35.877l26.855-70.02h8.5Zm-19.189-27L68.006-37.409A28.567,28.567,0,0,1,66.932-42.1h-.2a26.153,26.153,0,0,1-1.123,4.688L54.725-7.575Zm31.492,27v-70.02h19.922q9.082,0,14.4,4.443a14.361,14.361,0,0,1,5.322,11.572,17.028,17.028,0,0,1-3.223,10.352,17.378,17.378,0,0,1-8.887,6.25v.2a17.814,17.814,0,0,1,11.328,5.347Q153.6-7.917,153.6-.69a18.307,18.307,0,0,1-6.445,14.551q-6.445,5.566-16.26,5.566Zm8.2-62.6v22.607h8.4q6.738,0,10.6-3.247t3.857-9.155q0-10.205-13.428-10.205Zm0,29.98v25.2h11.133q7.227,0,11.206-3.418a11.708,11.708,0,0,0,3.979-9.375q0-12.4-16.895-12.4ZM220,19.427h-9.766L198.52-.2A42.752,42.752,0,0,0,195.4-4.865a17.814,17.814,0,0,0-3.1-3.149A10.739,10.739,0,0,0,188.876-9.8a14.055,14.055,0,0,0-4.126-.562h-6.738V19.427h-8.2v-70.02h20.9a29.783,29.783,0,0,1,8.472,1.147,18.955,18.955,0,0,1,6.738,3.491,16.224,16.224,0,0,1,4.468,5.835A19.349,19.349,0,0,1,212-31.94a19.694,19.694,0,0,1-1.1,6.714,17.534,17.534,0,0,1-3.125,5.444A18.943,18.943,0,0,1,202.89-15.7a24.928,24.928,0,0,1-6.421,2.612v.2a14.768,14.768,0,0,1,3.052,1.782,16.8,16.8,0,0,1,2.466,2.368,31.367,31.367,0,0,1,2.319,3.1q1.147,1.733,2.563,4.028Zm-41.992-62.6V-17.78h11.133a16.884,16.884,0,0,0,5.688-.928,13.169,13.169,0,0,0,4.517-2.661,12.068,12.068,0,0,0,2.979-4.248,14.222,14.222,0,0,0,1.074-5.64,10.977,10.977,0,0,0-3.638-8.765q-3.638-3.149-10.522-3.149Zm107.811,62.6h-9.082L269.319-.2H239.631l-6.982,19.629h-9.131l26.855-70.02h8.5Zm-19.189-27L255.647-37.409a28.567,28.567,0,0,1-1.074-4.687h-.2a26.153,26.153,0,0,1-1.123,4.688L242.366-7.575ZM355.741,20.6q-14.893,0-23.853-9.814t-8.96-25.537q0-16.895,9.131-26.953t24.854-10.059q14.5,0,23.364,9.766t8.862,25.537q0,17.139-9.082,27.1T355.741,20.6Zm.586-64.941a22.574,22.574,0,0,0-17.92,7.959q-6.885,7.959-6.885,20.9T338.236,5.34a21.9,21.9,0,0,0,17.5,7.886q11.523,0,18.164-7.52t6.641-21.045q0-13.867-6.445-21.436T356.327-44.342Zm105.027,63.77H451.3L415.26-36.383a23.32,23.32,0,0,1-2.246-4.395h-.293a72.088,72.088,0,0,1,.391,9.619V19.427h-8.2v-70.02h10.645L450.612,4.339q2.2,3.418,2.832,4.688h.2a74.081,74.081,0,0,1-.488-10.3V-50.592h8.2Zm56.688,0H481.713v-70.02h8.2v62.6h28.125Zm20.945,0h-8.2v-70.02h8.2Zm76.854,0H605.782L569.747-36.383a23.322,23.322,0,0,1-2.246-4.395h-.293a72.083,72.083,0,0,1,.391,9.619V19.427h-8.2v-70.02H570.04L605.1,4.339q2.2,3.418,2.832,4.688h.2a74.086,74.086,0,0,1-.488-10.3V-50.592h8.2Zm57.469,0H636.2v-70.02h35.547v7.422H644.4v23.291H669.7v7.373H644.4V12.005h28.906Z" transform="translate(105.234 362.398)"/><path class="c" d="M-.017,12.9V-14.4h7.77a8.492,8.492,0,0,1,5.618,1.733,5.6,5.6,0,0,1,2.076,4.513,6.641,6.641,0,0,1-1.257,4.037,6.777,6.777,0,0,1-3.466,2.438v.076A6.947,6.947,0,0,1,15.141.478,6.414,6.414,0,0,1,16.8,5.058a7.14,7.14,0,0,1-2.514,5.675A9.356,9.356,0,0,1,7.943,12.9Zm3.2-24.413v8.817H6.457a6.22,6.22,0,0,0,4.132-1.266,4.41,4.41,0,0,0,1.5-3.571q0-3.98-5.237-3.98Zm0,11.692v9.826H7.524a6.505,6.505,0,0,0,4.37-1.333A4.566,4.566,0,0,0,13.446,5.02q0-4.837-6.589-4.837ZM42.7,12.9H38.887l-4.57-7.655A16.673,16.673,0,0,0,33.1,3.43,6.948,6.948,0,0,0,31.888,2.2a4.188,4.188,0,0,0-1.333-.7,5.481,5.481,0,0,0-1.609-.219H26.318V12.9h-3.2V-14.4h8.15a11.615,11.615,0,0,1,3.3.448A7.392,7.392,0,0,1,37.2-12.595a6.327,6.327,0,0,1,1.742,2.276,7.546,7.546,0,0,1,.628,3.19,7.681,7.681,0,0,1-.428,2.618,6.838,6.838,0,0,1-1.219,2.123,7.388,7.388,0,0,1-1.9,1.59,9.722,9.722,0,0,1-2.5,1.019V.3a5.76,5.76,0,0,1,1.19.7,6.55,6.55,0,0,1,.962.924,12.233,12.233,0,0,1,.9,1.209q.448.676,1,1.571ZM26.318-11.509v9.9H30.66a6.585,6.585,0,0,0,2.219-.362A5.136,5.136,0,0,0,34.64-3.007,4.706,4.706,0,0,0,35.8-4.664a5.546,5.546,0,0,0,.419-2.2A4.281,4.281,0,0,0,34.8-10.281a6.094,6.094,0,0,0-4.1-1.228ZM50.426,12.9h-3.2V-14.4h3.2Zm29.973,0H76.476L62.422-8.863a9.1,9.1,0,0,1-.876-1.714h-.114a28.114,28.114,0,0,1,.152,3.751V12.9h-3.2V-14.4h4.151L76.209,7.019q.857,1.333,1.1,1.828h.076a28.892,28.892,0,0,1-.19-4.018V-14.4h3.2Zm28.354-1.866a18.261,18.261,0,0,1-9.141,2.323A12.49,12.49,0,0,1,90.157,9.59,13.829,13.829,0,0,1,86.549-.388,14.2,14.2,0,0,1,90.557-10.8a13.665,13.665,0,0,1,10.159-4.066,17.289,17.289,0,0,1,7.484,1.447v3.542a14.373,14.373,0,0,0-7.846-2.095,9.8,9.8,0,0,0-7.522,3.161A11.561,11.561,0,0,0,89.9-.617q0,5.18,2.723,8.141a9.544,9.544,0,0,0,7.389,2.961,11.416,11.416,0,0,0,5.542-1.276V1.554H99.574V-1.341h9.179ZM130.537,12.9h-3.2V-14.4h3.2Zm24.108-24.413H146.76V12.9h-3.2V-11.509H135.7V-14.4h18.948Zm27.535,24.87a11.987,11.987,0,0,1-9.3-3.828,14.2,14.2,0,0,1-3.494-9.959q0-6.589,3.561-10.512a12.437,12.437,0,0,1,9.693-3.923,11.717,11.717,0,0,1,9.112,3.809A14.248,14.248,0,0,1,195.2-1.093q0,6.684-3.542,10.569A12.207,12.207,0,0,1,182.179,13.361Zm.229-25.327a8.8,8.8,0,0,0-6.989,3.1,12.016,12.016,0,0,0-2.685,8.15,12.1,12.1,0,0,0,2.618,8.122,8.54,8.54,0,0,0,6.827,3.075,8.965,8.965,0,0,0,7.084-2.933q2.59-2.933,2.59-8.208,0-5.408-2.514-8.36A8.619,8.619,0,0,0,182.407-11.967ZM223.368,12.9h-3.923L205.391-8.863a9.1,9.1,0,0,1-.876-1.714H204.4a28.114,28.114,0,0,1,.152,3.751V12.9h-3.2V-14.4h4.151L219.179,7.019q.857,1.333,1.1,1.828h.076a28.892,28.892,0,0,1-.19-4.018V-14.4h3.2Z" transform="translate(322.062 446.055)"/></g></svg>