<svg xmlns="http://www.w3.org/2000/svg" xmlns:xlink="http://www.w3.org/1999/xlink" width="680" height="316" viewBox="0 0 680 316"><defs><linearGradient id="a" x1="0.5" y1="1" x2="0.5" gradientUnits="objectBoundingBox"><stop offset="0" stop-color="#c39f39"/><stop offset="1" stop-color="#d8c690"/></linearGradient></defs><g transform="translate(-57 -160)"><g transform="translate(-118 -159)" fill="none"><path d="M444.928,352.424l.044.008,16.512,3.3,1.974,24.926V384.5h.3l2.4,30.315a1.839,1.839,0,0,0,1.044,1.755,2.1,2.1,0,0,0,.722.253,3.327,3.327,0,0,0,.628.076h79.216s2.394.018,2.394-2.084c0-2.138-2.394-2.257-2.394-2.257H470.748l-.61-7.709h78.683l8.174-42.344L465.9,351.318l-.1-1.246,0-.038a2.388,2.388,0,0,0-2.628-2.026,2.123,2.123,0,0,0-2.109,2.323v.038l.067.849-15.141-3.026-.044-.009s-2.366-.35-2.865,1.738C442.585,351.975,444.928,352.424,444.928,352.424ZM481.708,400.5l-11.913.006L468.527,384.5h13.658Zm57.586-35.782,12.174,1.5-2.7,13.944H537.949ZM537.571,384.5h10.35l-3.1,15.969-8.644,0Zm-20.727-22.54,17.733,2.179-1.4,16.02h-17.6Zm-1.564,22.54H532.8l-1.392,15.975-17.241.009ZM487.721,358.38l24.4,3-1.3,18.779H487.07Zm-.78,26.119h23.577l-1.109,15.987-22.946.012Zm-3.957-26.7-.668,22.361H468.184l-1.933-24.417Zm49.887,65.339c-4.789.017-8.663,3.569-8.658,7.945s3.9,7.919,8.691,7.911,8.663-3.561,8.654-7.936S537.664,423.137,532.87,423.137Zm-57.839-4.723c-6.222,0-11.261,4.6-11.261,10.285s5.039,10.293,11.261,10.293,11.262-4.612,11.262-10.293S481.254,418.414,475.031,418.414Z" stroke="none"/><path d="M 463.3880004882813 350.0007629394531 C 463.3575439453125 350.0007629394531 463.3251342773438 350.0018005371094 463.29248046875 350.0038146972656 C 463.1868286132813 350.0103454589844 463.1204833984375 350.0246887207031 463.0835571289063 350.0354614257813 C 463.0715942382813 350.0741271972656 463.0615234375 350.1290588378906 463.057861328125 350.1772155761719 L 463.0598754882813 350.1830139160156 L 463.0598754882813 350.2897338867188 L 463.1209106445313 351.0593872070313 L 463.3299560546875 353.6972351074219 L 460.7351684570313 353.1785583496094 L 445.6473999023438 350.1628112792969 C 445.6265258789063 350.1615905761719 445.5973510742188 350.1604309082031 445.56201171875 350.1604309082031 C 445.2685546875 350.1604309082031 445.0968017578125 350.2332458496094 445.0687866210938 350.2583618164063 C 445.0685424804688 350.2586364746094 445.0516357421875 350.28125 445.032470703125 350.3467407226563 C 445.1175537109375 350.3933715820313 445.235107421875 350.4413146972656 445.3284301757813 350.4642333984375 L 445.343994140625 350.4671936035156 L 445.3541870117188 350.4691162109375 L 445.3643798828125 350.4711303710938 L 461.8764038085938 353.7697448730469 L 463.3589477539063 354.0659484863281 L 463.4783325195313 355.5731201171875 L 465.4524536132813 380.4989318847656 L 465.4586791992188 380.5777587890625 L 465.4586791992188 380.6567993164063 L 465.4586791992188 382.4998168945313 L 465.6110229492188 382.4998168945313 L 465.7568969726563 384.3419494628906 L 468.1576538085938 414.6564331054688 L 468.1638793945313 414.7352600097656 L 468.1638793945313 414.811767578125 L 468.1719970703125 414.8159484863281 L 468.2090454101563 414.8376770019531 C 468.21630859375 414.8399963378906 468.232421875 414.8446044921875 468.2592163085938 414.8490600585938 L 468.3038330078125 414.8565063476563 L 468.34814453125 414.8659362792969 C 468.4576416015625 414.8893432617188 468.5470581054688 414.8960571289063 468.57666015625 414.8977966308594 L 468.61181640625 414.8987426757813 L 468.6257934570313 414.8991394042969 L 547.7622680664063 414.8991394042969 C 547.8908081054688 414.8944091796875 548.0641479492188 414.8566589355469 548.1688232421875 414.8144226074219 C 548.1687622070313 414.7692260742188 548.1652221679688 414.7396850585938 548.1622314453125 414.7228698730469 C 548.0810546875 414.658203125 547.8571166992188 414.5815124511719 547.681884765625 414.5580139160156 L 470.7484130859375 414.5580139160156 L 468.9004516601563 414.5580139160156 L 468.754638671875 412.7158203125 L 468.1444091796875 405.0064392089844 L 467.9735717773438 402.8486328125 L 470.1381225585938 402.8486328125 L 547.1697998046875 402.8486328125 L 554.6246337890625 364.2290954589844 L 465.6568603515625 353.3029479980469 L 464.0358276367188 353.1038818359375 L 463.9069213867188 351.4757385253906 L 463.8136596679688 350.2971496582031 C 463.80322265625 350.274169921875 463.7488403320313 350.1562194824219 463.7241821289063 350.1189270019531 C 463.6841430664063 350.0581359863281 463.646240234375 350.0007629394531 463.3880004882813 350.0007629394531 M 484.2564697265625 382.15869140625 L 482.3153076171875 382.15869140625 L 468.1836547851563 382.15869140625 L 466.335693359375 382.15869140625 L 466.1898803710938 380.3164978027344 L 464.2571411132813 355.8995056152344 L 464.0638427734375 353.4578857421875 L 466.4948120117188 353.7566223144531 L 483.2271118164063 355.8130493164063 L 485.0367431640625 356.0354309082031 L 484.9822998046875 357.8578186035156 L 484.314453125 380.2183837890625 L 484.2564697265625 382.15869140625 M 512.6854248046875 382.15869140625 L 510.8193969726563 382.15869140625 L 487.0703125 382.15869140625 L 485.0097045898438 382.15869140625 L 485.0712280273438 380.0989990234375 L 485.7216186523438 358.3206176757813 L 485.787109375 356.1276245117188 L 487.9646911621094 356.395263671875 L 512.3666381835938 359.3941345214844 L 514.2492065429688 359.62548828125 L 514.117919921875 361.5176391601563 L 512.8145751953125 380.297119140625 L 512.6854248046875 382.15869140625 M 535.0147094726563 382.15869140625 L 533.181396484375 382.15869140625 L 515.5806884765625 382.15869140625 L 513.4370727539063 382.15869140625 L 513.5855102539063 380.0201721191406 L 514.8486328125 361.8209228515625 L 514.99462890625 359.7171325683594 L 517.0877685546875 359.974365234375 L 534.821044921875 362.1536254882813 L 536.737060546875 362.3890686035156 L 536.5695190429688 364.312255859375 L 535.173828125 380.3322448730469 L 535.0147094726563 382.15869140625 M 550.4122314453125 382.15869140625 L 548.7628784179688 382.15869140625 L 537.9490966796875 382.15869140625 L 535.7672729492188 382.15869140625 L 535.9566650390625 379.9851379394531 L 537.3017578125 364.5448608398438 L 537.4815673828125 362.4806213378906 L 539.5381469726563 362.7333679199219 L 551.711669921875 364.2294311523438 L 553.83935546875 364.4909362792969 L 553.43115234375 366.5953674316406 L 550.7262573242188 380.53955078125 L 550.4122314453125 382.15869140625 M 467.9466552734375 402.5078125 L 467.80078125 400.6646728515625 L 466.5336303710938 384.6576232910156 L 466.3628540039063 382.4998168945313 L 468.5274047851563 382.4998168945313 L 482.185546875 382.4998168945313 L 484.2462158203125 382.4998168945313 L 484.1846923828125 384.5595092773438 L 483.7068481445313 400.5603637695313 L 483.6488647460938 402.4996948242188 L 481.708740234375 402.5007019042969 L 469.7955932617188 402.5068664550781 L 467.9466552734375 402.5078125 M 484.4022216796875 402.4993896484375 L 484.4636840820313 400.4386291503906 L 484.9415283203125 384.4401245117188 L 484.9994506835938 382.4998168945313 L 486.9406127929688 382.4998168945313 L 510.51806640625 382.4998168945313 L 512.6617431640625 382.4998168945313 L 512.5133056640625 384.6383056640625 L 511.4037780761719 400.625 L 511.2746276855469 402.4855651855469 L 509.4095764160156 402.4865112304688 L 486.4638061523438 402.4983215332031 L 484.4022216796875 402.4993896484375 M 512.0263671875 402.4851379394531 L 512.1749267578125 400.3454895019531 L 513.2843017578125 384.3612976074219 L 513.4134521484375 382.4998168945313 L 515.2794189453125 382.4998168945313 L 532.80322265625 382.4998168945313 L 534.9849853515625 382.4998168945313 L 534.795654296875 384.6733703613281 L 533.4039306640625 400.648681640625 L 533.2449951171875 402.4741821289063 L 531.4124755859375 402.4751281738281 L 514.1710815429688 402.4840087890625 L 512.0263671875 402.4851379394531 M 533.9974365234375 402.4738159179688 L 534.1869506835938 400.2991333007813 L 535.5784912109375 384.3262634277344 L 535.7376708984375 382.4998168945313 L 537.5709228515625 382.4998168945313 L 547.9208984375 382.4998168945313 L 550.3461303710938 382.4998168945313 L 549.88427734375 384.8806762695313 L 546.7867431640625 400.8491821289063 L 546.4728393554688 402.4674987792969 L 544.8243408203125 402.4683227539063 L 536.180419921875 402.4726867675781 L 533.9974365234375 402.4738159179688 M 475.0310668945313 420.4144897460938 C 469.92431640625 420.4144897460938 465.7697143554688 424.1310119628906 465.7697143554688 428.6991882324219 C 465.7697143554688 433.2720642089844 469.92431640625 436.9923706054688 475.0310668945313 436.9923706054688 C 480.1380615234375 436.9923706054688 484.2929077148438 433.2720642089844 484.2929077148438 428.6991882324219 C 484.2929077148438 424.1310119628906 480.1380615234375 420.4144897460938 475.0310668945313 420.4144897460938 M 532.8764038085938 425.1371765136719 C 529.19775390625 425.1505126953125 526.2083129882813 427.8161315917969 526.2119140625 431.0753784179688 C 526.2222900390625 434.3380737304688 529.2161865234375 436.9923706054688 532.8857421875 436.9923706054688 L 532.899169921875 436.9923706054688 C 534.71484375 436.9891357421875 536.41162109375 436.3482360839844 537.67724609375 435.187744140625 C 538.8925170898438 434.0733032226563 539.5599365234375 432.6075744628906 539.5567016601563 431.0604248046875 C 539.5498046875 427.7961120605469 536.5536499023438 425.1401062011719 532.8764038085938 425.1371765136719 M 463.3880004882813 348.000732421875 C 465.5235595703125 348.000732421875 465.7974243164063 350.0339965820313 465.7974243164063 350.0339965820313 L 465.8020629882813 350.0721740722656 L 465.9006958007813 351.31787109375 L 556.9943237304688 362.505126953125 L 548.8206787109375 404.8486328125 L 470.1381225585938 404.8486328125 L 470.7484130859375 412.5580139160156 L 547.7744140625 412.5580139160156 C 547.7744140625 412.5580139160156 550.1688232421875 412.6776123046875 550.1688232421875 414.8153686523438 C 550.1688232421875 416.8818359375 547.8541259765625 416.8991394042969 547.7764892578125 416.8991394042969 C 547.775146484375 416.8991394042969 547.7744140625 416.8991394042969 547.7744140625 416.8991394042969 L 468.6000366210938 416.8991394042969 L 468.5581665039063 416.8980102539063 C 468.5581665039063 416.8980102539063 468.28759765625 416.8981323242188 467.9302978515625 416.8218078613281 C 467.6472778320313 416.7746276855469 467.4078979492188 416.6864929199219 467.2080688476563 416.5691833496094 C 466.6647338867188 416.2901306152344 466.1638793945313 415.7750549316406 466.1638793945313 414.8143005371094 L 463.7631225585938 384.4998168945313 L 463.4586791992188 384.4998168945313 L 463.4586791992188 380.6567993164063 L 461.4845581054688 355.7309875488281 L 444.9725952148438 352.432373046875 L 444.9282836914063 352.4240112304688 C 444.9282836914063 352.4240112304688 442.585205078125 351.9747009277344 443.0769653320313 349.9206848144531 C 443.45068359375 348.356689453125 444.8720703125 348.1604309082031 445.56201171875 348.1604614257813 C 445.793212890625 348.1604614257813 445.9423217773438 348.1824951171875 445.9423217773438 348.1824951171875 L 445.9862670898438 348.1910095214844 L 461.1271362304688 351.2173767089844 L 461.0598754882813 350.3688659667969 L 461.0598754882813 350.3306884765625 C 461.0598754882813 350.3306884765625 460.8765258789063 348.1495056152344 463.1688842773438 348.0076293945313 C 463.2440185546875 348.0029907226563 463.3170166015625 348.000732421875 463.3880004882813 348.000732421875 Z M 466.2509155273438 355.74169921875 L 468.1836547851563 380.15869140625 L 482.3153076171875 380.15869140625 L 482.9832153320313 357.7981262207031 L 466.2509155273438 355.74169921875 Z M 510.8193969726563 380.15869140625 L 512.1226806640625 361.3791809082031 L 487.7207641601563 358.3803100585938 L 487.0703125 380.15869140625 L 510.8193969726563 380.15869140625 Z M 533.181396484375 380.15869140625 L 534.5770874023438 364.138671875 L 516.8438720703125 361.9594421386719 L 515.5806884765625 380.15869140625 L 533.181396484375 380.15869140625 Z M 548.7628784179688 380.15869140625 L 551.4677734375 366.2145080566406 L 539.294189453125 364.7184448242188 L 537.9490966796875 380.15869140625 L 548.7628784179688 380.15869140625 Z M 468.5274047851563 384.4998168945313 L 469.7944946289063 400.5068664550781 L 481.7077026367188 400.5007019042969 L 482.185546875 384.4998168945313 L 468.5274047851563 384.4998168945313 Z M 486.4628295898438 400.4983215332031 L 509.4085693359375 400.4865112304688 L 510.51806640625 384.4998168945313 L 486.9406127929688 384.4998168945313 L 486.4628295898438 400.4983215332031 Z M 514.1700439453125 400.4840087890625 L 531.4114990234375 400.4751281738281 L 532.80322265625 384.4998168945313 L 515.2794189453125 384.4998168945313 L 514.1700439453125 400.4840087890625 Z M 536.1793823242188 400.4726867675781 L 544.8233642578125 400.4683227539063 L 547.9208984375 384.4998168945313 L 537.5709228515625 384.4998168945313 L 536.1793823242188 400.4726867675781 Z M 475.0310668945313 418.4144897460938 C 481.2537231445313 418.4144897460938 486.2929077148438 423.0184936523438 486.2929077148438 428.6991882324219 C 486.2929077148438 434.3800048828125 481.2537231445313 438.9923706054688 475.0310668945313 438.9923706054688 C 468.8087768554688 438.9923706054688 463.7697143554688 434.3800048828125 463.7697143554688 428.6991882324219 C 463.7697143554688 423.0184936523438 468.8087768554688 418.4144897460938 475.0310668945313 418.4144897460938 Z M 532.870361328125 423.1371765136719 C 537.66357421875 423.1371765136719 541.5474853515625 426.6813049316406 541.5567016601563 431.0561828613281 C 541.56591796875 435.4313659667969 537.69140625 438.98388671875 532.9027709960938 438.9923706054688 C 532.8969116210938 438.9923706054688 532.8915405273438 438.9924011230469 532.8856811523438 438.9924011230469 C 528.1004638671875 438.9924011230469 524.225830078125 435.4514770507813 524.2119140625 431.0818176269531 C 524.20703125 426.7066955566406 528.0816650390625 423.1541137695313 532.870361328125 423.1371765136719 Z" stroke="none" fill="#9f8542"/></g><g transform="translate(57 160)" fill="none" stroke="#9f8542" stroke-width="4"><rect width="680" height="316" rx="10" stroke="none"/><rect x="2" y="2" width="676" height="312" rx="8" fill="none"/></g><path d="M268.87,513.718H244.535v21.555h22.511v6.562H244.535v27.6h-7.3V507.113H268.87Zm56.623,55.712H317.41L310.8,551.96H284.383l-6.214,17.47h-8.126l23.9-62.317H301.5ZM308.415,545.4l-9.778-26.552a25.424,25.424,0,0,1-.956-4.172h-.174a23.276,23.276,0,0,1-1,4.172L286.816,545.4Zm28.028,24.032V507.113h17.73q8.083,0,12.82,3.955a12.781,12.781,0,0,1,4.737,10.3,15.155,15.155,0,0,1-2.868,9.213,15.466,15.466,0,0,1-7.909,5.563v.174a15.854,15.854,0,0,1,10.082,4.759,14.636,14.636,0,0,1,3.781,10.451,16.293,16.293,0,0,1-5.736,12.95q-5.736,4.954-14.471,4.954Zm7.3-55.712v20.121h7.475q6,0,9.43-2.89a10.063,10.063,0,0,0,3.433-8.148q0-9.082-11.951-9.083Zm0,26.683v22.424h9.908q6.432,0,9.973-3.042a10.42,10.42,0,0,0,3.542-8.344q0-11.038-15.036-11.038Zm90.172,29.029h-8.691l-10.43-17.47a38.046,38.046,0,0,0-2.781-4.15,15.856,15.856,0,0,0-2.76-2.8,9.558,9.558,0,0,0-3.042-1.586,12.508,12.508,0,0,0-3.672-.5h-6V569.43h-7.3V507.113h18.6a26.507,26.507,0,0,1,7.54,1.021,16.87,16.87,0,0,1,6,3.107,14.439,14.439,0,0,1,3.976,5.193,17.221,17.221,0,0,1,1.434,7.279,17.528,17.528,0,0,1-.978,5.975,15.605,15.605,0,0,1-2.781,4.845,16.859,16.859,0,0,1-4.346,3.629,22.186,22.186,0,0,1-5.715,2.325v.174a13.144,13.144,0,0,1,2.716,1.586,14.946,14.946,0,0,1,2.195,2.108,27.92,27.92,0,0,1,2.064,2.76q1.021,1.543,2.281,3.585Zm-37.373-55.712v22.6h9.908a15.027,15.027,0,0,0,5.063-.826,11.72,11.72,0,0,0,4.02-2.368,10.741,10.741,0,0,0,2.651-3.781,12.657,12.657,0,0,0,.956-5.019,9.769,9.769,0,0,0-3.238-7.8q-3.238-2.8-9.365-2.8Zm95.951,55.712H484.41L477.8,551.96H451.383l-6.214,17.47h-8.126l23.9-62.317h7.562ZM475.415,545.4l-9.778-26.552a25.424,25.424,0,0,1-.956-4.172h-.174a23.276,23.276,0,0,1-1,4.172L453.817,545.4Zm79.306,25.075q-13.254,0-21.229-8.735t-7.974-22.728q0-15.036,8.126-23.988t22.12-8.952q12.907,0,20.794,8.691t7.887,22.728q0,15.253-8.083,24.119T554.72,570.473Zm.521-57.8a20.091,20.091,0,0,0-15.949,7.083q-6.127,7.084-6.127,18.6t5.975,18.534a19.488,19.488,0,0,0,15.579,7.018q10.256,0,16.166-6.692t5.91-18.73q0-12.342-5.736-19.078T555.242,512.675Zm93.474,56.755h-8.952l-32.071-49.671a20.759,20.759,0,0,1-2-3.911h-.261a64.15,64.15,0,0,1,.348,8.561V569.43h-7.3V507.113h9.474L639.156,556q1.956,3.042,2.521,4.172h.174a65.94,65.94,0,0,1-.435-9.169V507.113h7.3Zm50.452,0H666.836V507.113h7.3v55.712h25.031Zm18.641,0h-7.3V507.113h7.3Zm68.4,0h-8.952l-32.071-49.671a20.759,20.759,0,0,1-2-3.911h-.261a64.15,64.15,0,0,1,.348,8.561V569.43h-7.3V507.113h9.474L776.648,556q1.956,3.042,2.521,4.172h.174a65.94,65.94,0,0,1-.435-9.169V507.113h7.3Zm51.147,0H804.329V507.113h31.637v6.605H811.63v20.729H834.14v6.562H811.63v21.815h25.727Z" transform="translate(-140 -207)" fill="#9f8542"/><path d="M422.2,591.829V567.322h6.973a7.621,7.621,0,0,1,5.042,1.555,5.026,5.026,0,0,1,1.863,4.05,5.96,5.96,0,0,1-1.128,3.623,6.082,6.082,0,0,1-3.11,2.188v.068a6.235,6.235,0,0,1,3.965,1.871,5.756,5.756,0,0,1,1.487,4.11,6.407,6.407,0,0,1-2.256,5.093,8.4,8.4,0,0,1-5.691,1.948Zm2.871-21.909v7.913h2.939a5.582,5.582,0,0,0,3.708-1.136,3.958,3.958,0,0,0,1.35-3.2q0-3.572-4.7-3.572Zm0,10.493v8.818h3.9a5.838,5.838,0,0,0,3.922-1.2,4.1,4.1,0,0,0,1.393-3.281q0-4.341-5.913-4.341Zm35.461,11.416h-3.418l-4.1-6.87a14.964,14.964,0,0,0-1.094-1.632,6.237,6.237,0,0,0-1.085-1.1,3.759,3.759,0,0,0-1.2-.624,4.919,4.919,0,0,0-1.444-.2h-2.358v10.425h-2.871V567.322h7.314a10.423,10.423,0,0,1,2.965.4,6.634,6.634,0,0,1,2.358,1.222,5.678,5.678,0,0,1,1.564,2.042,6.772,6.772,0,0,1,.564,2.863,6.893,6.893,0,0,1-.385,2.35,6.137,6.137,0,0,1-1.094,1.906,6.63,6.63,0,0,1-1.709,1.427,8.726,8.726,0,0,1-2.247.914v.068a5.169,5.169,0,0,1,1.068.624,5.879,5.879,0,0,1,.863.829,10.982,10.982,0,0,1,.812,1.085q.4.607.9,1.41Zm-14.7-21.909v8.887h3.9a5.909,5.909,0,0,0,1.991-.325,4.609,4.609,0,0,0,1.581-.931,4.224,4.224,0,0,0,1.042-1.487,4.978,4.978,0,0,0,.376-1.974,3.842,3.842,0,0,0-1.273-3.068,5.469,5.469,0,0,0-3.683-1.1Zm21.635,21.909H464.6V567.322h2.871Zm26.9,0h-3.521L478.236,572.3a8.162,8.162,0,0,1-.786-1.538h-.1a25.234,25.234,0,0,1,.137,3.367v17.705h-2.871V567.322h3.726l12.271,19.226q.769,1.2.991,1.641h.068a25.926,25.926,0,0,1-.171-3.606V567.322h2.871Zm25.446-1.675a16.388,16.388,0,0,1-8.2,2.085,11.209,11.209,0,0,1-8.485-3.384,12.411,12.411,0,0,1-3.239-8.955,12.743,12.743,0,0,1,3.6-9.34,12.263,12.263,0,0,1,9.117-3.649,15.515,15.515,0,0,1,6.716,1.3v3.179a12.9,12.9,0,0,0-7.041-1.88,8.8,8.8,0,0,0-6.75,2.837A11.85,11.85,0,0,0,505.34,587a8.565,8.565,0,0,0,6.631,2.657,10.245,10.245,0,0,0,4.973-1.145v-6.87h-5.366v-2.6h8.237Zm19.549,1.675h-2.871V567.322h2.871ZM561,569.92h-7.075v21.909h-2.871V569.92H544v-2.6h17Zm24.711,22.319a10.757,10.757,0,0,1-8.348-3.435,12.741,12.741,0,0,1-3.136-8.938q0-5.913,3.2-9.434a11.162,11.162,0,0,1,8.7-3.521,10.515,10.515,0,0,1,8.177,3.418,12.787,12.787,0,0,1,3.1,8.938q0,6-3.179,9.485A10.955,10.955,0,0,1,585.71,592.239Zm.205-22.729a7.9,7.9,0,0,0-6.272,2.786,12.392,12.392,0,0,0-.06,14.6,7.664,7.664,0,0,0,6.127,2.76,8.046,8.046,0,0,0,6.357-2.632q2.324-2.632,2.324-7.366,0-4.853-2.256-7.5A7.735,7.735,0,0,0,585.915,569.51Zm36.76,22.319h-3.521L606.542,572.3a8.162,8.162,0,0,1-.786-1.538h-.1a25.234,25.234,0,0,1,.137,3.367v17.705h-2.871V567.322h3.726l12.271,19.226q.769,1.2.991,1.641h.068a25.926,25.926,0,0,1-.171-3.606V567.322h2.871Z" transform="translate(-125 -170)" fill="url(#a)"/></g></svg>